<?xml version="1.0" standalone="no"?>
<!DOCTYPE svg PUBLIC "-//W3C//DTD SVG 20010904//EN"
 "http://www.w3.org/TR/2001/REC-SVG-20010904/DTD/svg10.dtd">
<svg version="1.0" xmlns="http://www.w3.org/2000/svg"
 width="400.000000pt" height="400.000000pt" viewBox="0 0 400.000000 400.000000"
 preserveAspectRatio="xMidYMid meet">
<metadata>
Created by potrace 1.11, written by Peter Selinger 2001-2013
</metadata>
<g transform="translate(0.000000,400.000000) scale(0.100000,-0.100000)"
fill="#000000" stroke="none">
<path d="M0 2115 c0 -1267 3 -1885 10 -1885 6 0 18 4 28 9 9 6 43 22 75 37 32
15 65 38 74 51 8 12 21 23 28 23 7 0 18 6 24 14 7 8 27 18 44 22 17 3 38 10
47 15 8 5 32 15 53 24 39 15 42 35 6 35 -27 0 -14 20 14 21 21 0 21 1 -3 11
l-25 10 30 9 c17 5 41 7 55 3 23 -5 24 -5 7 14 -23 26 -22 29 18 42 46 15 109
6 137 -19 11 -11 25 -18 30 -15 4 3 8 -1 8 -8 0 -17 62 -41 84 -32 9 3 16 1
16 -6 0 -6 5 -8 13 -3 19 12 47 14 47 3 0 -6 -5 -10 -11 -10 -5 0 -8 -4 -4 -9
3 -5 17 -6 33 -2 28 8 103 -16 116 -37 8 -13 78 -3 89 12 5 8 9 8 15 0 4 -6
15 -13 25 -17 13 -5 16 -13 11 -33 -6 -23 -4 -25 13 -20 31 10 55 -3 48 -25
-8 -26 17 -25 40 1 16 18 16 20 1 26 -28 11 -18 24 18 24 19 0 36 6 39 13 3 9
7 9 18 1 15 -12 60 -12 94 1 16 5 17 5 5 -4 -8 -5 -12 -12 -9 -16 3 -3 14 4
24 15 12 13 14 20 5 20 -7 0 -10 7 -6 15 7 19 -11 19 -48 0 -18 -10 -33 -12
-39 -6 -5 5 -1 12 12 16 12 3 21 11 21 16 0 11 -37 12 -44 1 -8 -14 -116 -14
-116 -1 0 6 9 9 20 6 11 -3 18 -1 14 4 -3 5 2 9 11 9 9 0 13 5 10 10 -3 6 -18
7 -33 4 -15 -3 -42 -8 -59 -11 -18 -3 -33 -10 -33 -15 0 -6 -14 -8 -34 -5 -27
4 -36 2 -39 -11 -3 -13 -7 -11 -17 11 -7 15 -17 27 -22 27 -4 0 -8 6 -8 13 0
6 -13 21 -29 31 -15 11 -28 26 -27 35 1 13 -10 15 -64 13 -41 -2 -69 -9 -76
-18 -16 -21 -22 -17 -16 11 3 16 11 25 23 25 10 0 21 4 24 10 3 5 -3 10 -14
10 -24 0 -52 26 -45 43 3 8 -9 18 -30 25 -24 9 -33 18 -29 27 3 9 -1 15 -11
15 -9 0 -16 3 -16 8 0 4 19 6 41 4 29 -3 40 -1 35 7 -4 6 -16 11 -26 11 -10 0
-28 14 -40 30 -12 16 -28 30 -36 30 -8 0 -14 7 -14 15 0 9 6 12 15 9 25 -10
17 3 -34 54 -28 28 -48 52 -45 55 5 5 -16 51 -52 120 -8 15 -19 27 -23 27 -5
0 -11 10 -15 23 -3 12 -24 46 -47 76 -23 30 -42 60 -43 67 -1 6 -7 18 -13 25
-6 8 -20 33 -31 57 -17 35 -18 44 -7 48 10 4 2 27 -31 90 -43 81 -63 164 -39
164 5 0 11 12 11 28 7 163 9 179 23 174 11 -4 12 -1 6 14 -17 42 -13 140 6
128 5 -3 6 2 3 10 -4 9 -1 16 6 16 9 0 11 12 6 42 -6 36 -5 40 9 28 17 -14 19
-3 6 32 -10 27 3 43 81 96 44 30 97 44 83 22 -3 -6 2 -21 12 -34 11 -13 25
-43 32 -67 7 -24 17 -52 22 -61 5 -10 9 -29 9 -43 0 -28 30 -36 31 -7 0 15 2
14 15 -4 10 -14 22 -20 34 -17 11 3 17 9 15 14 -3 4 -12 6 -20 2 -9 -3 -15 1
-15 9 0 12 25 16 62 9 4 0 15 -16 24 -33 23 -45 76 -108 92 -108 17 0 15 19
-3 26 -8 4 -15 14 -15 23 0 9 -6 23 -12 29 -10 10 -10 15 2 22 22 14 28 12 46
-15 14 -22 22 -24 50 -19 36 7 47 -8 18 -24 -19 -11 -13 -35 17 -72 l20 -25
-7 48 c-6 42 -3 51 15 69 16 14 30 18 49 14 15 -4 33 -7 40 -8 6 -1 12 -8 12
-15 0 -8 -5 -11 -10 -8 -14 8 -49 -35 -43 -52 3 -7 0 -13 -6 -13 -7 0 -14 7
-17 15 -4 8 -10 15 -16 15 -5 0 -6 -6 -1 -12 9 -16 5 -66 -8 -90 -8 -15 -12
-15 -37 -2 -25 13 -27 13 -30 -8 -2 -12 3 -25 12 -30 9 -5 14 -14 10 -19 -11
-18 6 -61 21 -55 9 3 21 -10 35 -36 l21 -40 -20 -18 c-24 -20 -17 -34 11 -19
10 5 24 7 30 3 6 -4 8 -3 5 3 -4 6 7 16 25 22 38 13 41 14 33 1 -3 -6 -15 -10
-26 -10 -16 0 -18 -3 -9 -19 5 -11 10 -37 10 -59 0 -44 15 -56 55 -46 14 3 26
16 30 31 9 36 128 149 145 138 6 -4 10 0 10 9 0 19 71 74 88 68 13 -4 33 3 84
29 23 12 31 11 23 0 -9 -16 9 -20 49 -11 40 9 64 -3 80 -40 7 -17 0 45 -9 75
-3 11 1 29 9 40 15 19 15 18 10 -15 -6 -33 -6 -34 9 -15 16 20 16 20 17 -3 0
-13 4 -20 10 -17 5 3 10 -1 10 -10 0 -10 12 -31 26 -48 18 -21 24 -37 19 -54
-4 -19 -2 -23 12 -21 12 2 24 -8 34 -30 17 -34 54 -71 73 -73 6 -1 18 -3 26
-4 8 -1 27 -3 43 -4 28 -1 37 -27 17 -47 -6 -6 -8 -19 -4 -28 5 -14 9 -15 15
-4 7 10 11 10 21 0 9 -9 10 -17 2 -30 -13 -20 1 -72 23 -85 8 -5 13 -25 12
-50 0 -23 0 -66 1 -95 2 -57 -22 -118 -50 -127 -78 -24 -167 -7 -184 37 -6 15
-18 31 -28 34 -24 7 -23 41 3 83 33 54 -2 90 -36 37 -10 -15 -33 -28 -60 -35
-29 -7 -46 -18 -50 -31 -9 -28 3 -43 30 -38 17 4 27 -3 40 -25 26 -43 47 -67
56 -61 4 2 10 -5 14 -16 3 -11 13 -20 21 -20 8 0 17 -6 20 -14 3 -8 12 -12 21
-9 8 3 19 0 23 -7 5 -8 25 -13 49 -12 23 1 41 -2 41 -7 0 -21 60 -71 112 -91
55 -23 58 -23 102 -6 46 18 70 44 82 90 5 20 11 25 25 21 11 -4 25 1 36 14 10
12 23 21 29 21 7 0 26 16 42 34 23 26 32 49 37 91 4 32 12 55 19 54 37 -4 56
2 56 20 0 27 -61 60 -122 65 -3 1 -10 4 -14 8 -15 16 -34 7 -34 -15 0 -24 27
-57 47 -57 6 0 11 -17 11 -37 0 -39 -37 -109 -60 -111 -7 -1 -25 -3 -39 -6
-14 -2 -32 0 -40 4 -7 5 -20 5 -30 0 -12 -7 -25 -1 -53 26 -21 20 -35 38 -33
41 3 2 -1 15 -7 29 -8 14 -12 50 -10 86 4 84 -3 113 -30 127 -27 15 -51 72
-34 82 7 4 2 9 -13 12 l-24 4 24 2 c18 1 22 5 18 22 -4 15 -2 19 9 15 8 -3 32
2 54 10 22 9 47 14 55 11 8 -4 17 -2 21 4 6 11 80 59 89 59 4 0 3 -5 0 -10 -9
-15 2 -12 31 6 13 9 27 14 31 11 9 -10 63 32 63 49 0 8 5 14 12 14 9 0 9 3 0
12 -10 10 -15 10 -22 -2 -8 -13 -10 -12 -10 3 0 10 8 17 20 17 12 0 20 7 20
16 0 12 7 14 32 8 18 -3 38 -14 45 -23 15 -20 18 1 3 29 -8 15 -5 19 15 24 33
8 113 -47 140 -97 11 -20 24 -37 28 -37 5 0 15 -7 23 -15 9 -8 12 -15 9 -15
-12 0 55 -59 73 -65 23 -8 72 -52 72 -65 0 -5 4 -10 10 -10 5 0 23 -21 40 -47
24 -39 30 -44 30 -25 0 14 4 21 11 17 7 -5 8 -29 4 -69 -4 -34 -2 -72 4 -86 9
-24 10 -24 10 8 1 25 6 35 22 39 16 5 19 11 14 33 -3 16 -1 31 4 35 14 8 14
48 1 61 -6 6 -6 15 0 24 8 12 10 10 11 -10 0 -14 3 -19 6 -12 8 21 32 13 39
-13 9 -37 -3 -76 -21 -69 -11 5 -15 -2 -15 -25 0 -21 -5 -31 -15 -31 -9 0 -15
-9 -15 -21 0 -11 -9 -32 -20 -46 -23 -30 -28 -78 -6 -70 7 3 18 1 24 -5 8 -8
15 -3 24 17 10 23 10 29 0 33 -10 3 -7 8 7 19 12 8 21 22 21 32 0 24 29 81 45
87 8 3 13 24 13 56 0 36 -3 46 -10 37 -10 -14 -7 -2 9 38 4 11 3 14 -5 9 -13
-8 -16 8 -13 67 2 30 0 36 -13 31 -10 -4 -16 -1 -16 9 0 8 5 17 11 19 18 6 2
78 -16 78 -21 0 -18 15 6 31 13 9 18 20 14 32 -10 24 -25 22 -25 -4 0 -16 -4
-19 -22 -13 -31 9 -30 6 -18 59 8 36 8 50 -1 55 -6 4 -9 14 -7 21 3 8 -1 27
-9 42 -8 15 -11 36 -8 46 3 10 -3 46 -14 79 -16 51 -16 62 -5 62 8 0 19 -12
25 -27 10 -27 11 -27 25 -9 8 11 14 39 14 63 0 41 1 43 30 43 17 0 30 -5 31
-12 0 -7 4 -3 9 10 10 25 18 27 40 11 11 -8 12 -12 2 -16 -17 -7 -15 -30 3
-37 12 -4 7 -13 -21 -39 -35 -32 -40 -58 -11 -56 9 0 8 2 -1 6 -17 7 -5 23 18
23 11 0 25 10 31 23 17 31 30 37 64 31 33 -6 97 20 73 29 -7 3 -2 6 12 7 14 0
39 7 55 14 l30 14 -25 10 c-23 9 -419 268 -448 293 -7 6 -23 16 -35 23 -12 6
-48 27 -80 46 -152 91 -349 190 -379 190 -8 0 -18 4 -24 9 -12 12 -202 82
-284 105 -299 83 -356 91 -645 91 -224 0 -261 -3 -355 -24 -137 -30 -266 -74
-360 -122 -42 -22 -79 -39 -84 -39 -4 0 -28 -13 -53 -30 -24 -16 -47 -30 -51
-30 -15 0 -184 -131 -216 -167 -6 -7 -38 -41 -72 -76 -84 -87 -134 -174 -135
-235 0 -36 -2 -42 -9 -26 -15 38 16 148 53 186 7 7 23 29 35 49 28 46 148 160
245 234 42 31 74 62 70 68 -3 6 -1 7 6 3 7 -4 26 3 44 16 18 13 50 32 72 42
22 9 47 21 55 27 8 5 24 14 35 20 11 6 38 33 60 61 22 28 56 67 75 87 35 37
83 95 117 140 10 13 26 31 36 39 9 9 17 20 17 25 0 5 11 21 24 35 13 15 45 52
71 82 86 101 140 161 168 187 28 27 39 55 12 33 -8 -6 -19 -9 -24 -5 -7 4 -8
-1 -4 -12 4 -13 3 -15 -6 -7 -8 8 -35 4 -96 -11 -47 -12 -87 -20 -90 -17 -2 3
-11 0 -18 -6 -7 -7 -22 -13 -33 -15 -10 -2 -26 -7 -34 -10 -46 -18 -162 -47
-169 -42 -6 3 -13 0 -16 -6 -4 -5 -13 -8 -20 -5 -8 3 -17 -4 -20 -15 -4 -10
-11 -19 -16 -19 -5 0 -9 -10 -9 -22 0 -15 -3 -19 -8 -11 -6 9 -14 3 -27 -20
-10 -17 -27 -38 -37 -45 -10 -7 -18 -24 -18 -38 0 -13 -5 -24 -11 -24 -5 0 -8
-4 -5 -9 3 -5 -1 -11 -9 -15 -8 -3 -15 -15 -15 -26 0 -11 -4 -20 -10 -20 -5 0
-10 -8 -11 -17 0 -11 -3 -13 -6 -6 -4 12 4 32 78 189 16 34 29 67 29 73 0 6 5
11 10 11 6 0 10 4 10 10 0 16 101 119 124 126 11 3 37 21 56 38 19 18 72 50
118 71 45 22 82 42 82 46 0 4 11 10 25 13 14 4 25 10 25 15 0 13 46 35 167 82
81 31 126 41 220 51 127 13 480 16 578 5 33 -4 110 -11 170 -17 449 -41 750
-122 878 -236 20 -19 44 -34 52 -34 8 0 15 -4 15 -10 0 -5 20 -21 44 -35 79
-46 163 -172 247 -370 15 -37 78 -246 85 -283 4 -20 11 -42 16 -49 15 -19 36
-107 58 -241 24 -147 24 -149 5 -149 -10 0 -13 6 -10 17 3 10 2 25 -2 35 -6
18 -7 18 -14 -1 -5 -14 -9 -6 -14 30 -8 48 -25 48 -25 0 0 -12 -11 -29 -25
-38 -14 -9 -25 -23 -25 -31 0 -8 -4 -15 -8 -15 -5 0 -14 -12 -21 -27 l-13 -28
-18 23 c-10 12 -22 22 -27 22 -5 0 -7 15 -5 34 3 28 0 35 -17 41 -25 8 -27 28
-4 51 9 9 17 28 18 42 0 30 25 43 25 13 0 -34 17 -33 30 2 9 23 14 27 17 15 2
-9 -1 -26 -6 -37 -6 -11 -11 -32 -10 -48 1 -28 1 -28 8 -3 7 26 28 30 65 15
14 -6 17 -5 11 4 -4 8 -3 16 4 20 8 5 6 15 -7 32 -11 13 -23 49 -26 79 -4 30
-13 78 -21 105 -7 28 -20 93 -30 145 -21 125 -66 258 -104 311 -17 23 -31 49
-32 58 0 12 -2 12 -8 -3 -7 -18 -9 -17 -28 7 -11 15 -23 23 -27 20 -3 -3 -6 1
-6 10 0 10 -4 17 -10 17 -5 0 -10 15 -10 34 0 43 -13 53 -80 59 -87 8 -109 13
-220 52 -167 59 -371 90 -432 66 -23 -9 -28 -17 -28 -45 0 -19 5 -36 10 -38 6
-2 12 -29 13 -60 2 -52 1 -56 -16 -46 -14 7 -17 16 -12 39 6 25 4 29 -14 29
-12 0 -21 5 -21 10 0 18 -22 10 -27 -9 -3 -14 -13 -19 -31 -19 -43 1 -112 -13
-112 -23 0 -5 -13 -9 -30 -9 -24 0 -30 -4 -30 -21 0 -12 -4 -18 -11 -13 -7 4
-10 1 -7 -7 3 -8 -8 -22 -24 -32 -36 -21 -178 -57 -230 -57 -70 0 -62 -40 16
-88 30 -17 107 -50 173 -72 65 -22 136 -49 158 -60 21 -11 47 -20 56 -20 9 0
33 -7 52 -15 20 -8 50 -15 66 -15 16 0 33 -4 36 -10 3 -5 13 -10 22 -10 16 0
19 -1 198 -83 66 -30 131 -58 144 -62 14 -4 46 -21 72 -36 25 -16 50 -29 54
-29 4 0 19 -9 34 -19 27 -19 120 -71 128 -71 2 0 1 5 -2 10 -11 17 7 11 21 -7
17 -22 18 -41 2 -25 -7 7 -27 12 -45 12 -21 0 -51 12 -81 33 -62 42 -88 55
-282 132 -63 25 -127 52 -142 60 -14 8 -37 15 -50 15 -13 0 -28 4 -34 8 -5 5
-35 15 -66 22 -32 7 -58 17 -58 21 0 4 -15 11 -32 14 -18 4 -64 22 -103 40
-38 18 -117 47 -175 65 -58 17 -110 38 -116 46 -6 8 -16 14 -22 14 -6 0 -29 9
-51 21 -22 11 -45 18 -51 14 -6 -3 -22 -9 -36 -11 -23 -4 -26 -2 -21 16 3 13
0 20 -9 20 -8 0 -13 -9 -11 -22 2 -19 -4 -24 -30 -26 -26 -3 -32 1 -36 20 -4
22 -4 22 -6 1 -1 -14 -11 -25 -32 -32 -45 -15 -62 -14 -55 5 3 8 2 12 -4 9 -6
-3 -10 -15 -10 -27 0 -16 -5 -19 -25 -16 -14 3 -25 1 -25 -5 0 -6 -3 -8 -6 -4
-4 3 -20 -1 -36 -9 -16 -8 -33 -12 -38 -9 -6 3 -10 1 -10 -4 0 -6 -11 -11 -24
-11 -13 0 -29 -6 -35 -13 -10 -13 8 -14 109 -7 8 1 110 -1 225 -4 231 -5 297
-13 520 -64 87 -19 390 -136 465 -179 14 -7 41 -22 60 -31 19 -9 44 -25 54
-34 11 -10 28 -21 39 -24 18 -6 59 -35 140 -97 148 -115 317 -275 317 -299 0
-23 23 -48 43 -48 18 0 87 -75 87 -95 0 -8 7 -15 15 -15 8 0 15 5 15 11 0 5 5
7 10 4 6 -3 10 -15 10 -26 0 -10 4 -19 10 -19 5 0 7 -8 3 -17 -4 -12 1 -9 15
7 19 22 21 23 22 6 0 -15 3 -16 15 -6 12 10 15 10 15 -4 0 -9 5 -16 11 -16 5
0 15 -13 20 -30 6 -16 15 -30 20 -30 16 0 10 -61 -9 -88 -11 -15 -26 -42 -35
-61 -16 -32 -16 -36 2 -75 10 -23 26 -49 35 -58 13 -14 15 -22 6 -37 -7 -14
-7 -22 1 -27 6 -3 9 -17 6 -30 -2 -13 4 -35 13 -49 10 -15 15 -35 13 -46 -3
-12 0 -19 8 -19 10 0 14 -15 14 -52 0 -29 4 -62 9 -73 22 -48 25 -89 9 -91 -7
-1 -16 -2 -20 -3 -3 0 2 -10 12 -21 18 -19 17 -20 -5 -20 -18 0 -20 -3 -10
-14 9 -12 8 -17 -9 -28 -19 -11 -19 -14 -4 -30 14 -16 14 -18 1 -18 -15 0 -33
-42 -29 -68 1 -7 -5 -15 -12 -18 -8 -3 -13 -13 -10 -23 2 -9 -3 -23 -11 -30
-9 -8 -16 -22 -16 -32 0 -11 -6 -19 -14 -19 -8 0 -21 -8 -28 -18 -7 -10 -21
-21 -31 -25 -13 -5 -16 -13 -11 -32 3 -14 2 -25 -4 -25 -5 0 -12 -13 -15 -28
-3 -16 -15 -33 -28 -38 -16 -8 -22 -19 -23 -47 -1 -20 1 -37 4 -37 3 0 17 -11
32 -24 27 -26 38 -24 38 6 0 10 5 18 10 18 6 0 10 -12 10 -27 0 -22 2 -25 10
-13 8 12 10 12 10 -5 1 -19 2 -19 10 1 14 36 34 42 27 8 -3 -16 -4 -23 -1 -16
9 19 24 14 24 -7 0 -14 5 -18 21 -14 11 3 23 12 26 19 3 8 13 14 22 14 9 0 22
5 29 12 9 9 12 8 12 -6 0 -13 5 -16 20 -11 12 4 20 2 20 -6 0 -8 13 -10 40 -6
44 6 51 -4 20 -26 -20 -14 -17 -15 35 -22 38 -4 55 -11 55 -21 0 -8 7 -14 15
-14 13 0 15 197 15 1710 l0 1710 -2000 0 -2000 0 0 -1885z m2583 1120 c15 -25
27 -50 27 -55 0 -6 7 -10 15 -10 8 0 15 -6 15 -14 0 -24 -39 -6 -66 29 -23 31
-41 95 -26 95 4 0 19 -20 35 -45z m-2023 -324 c-5 -11 -10 -29 -10 -40 0 -19
-17 -38 -26 -29 -6 7 28 88 38 88 5 0 4 -9 -2 -19z m225 -111 c-3 -5 -11 -10
-16 -10 -6 0 -7 5 -4 10 3 6 11 10 16 10 6 0 7 -4 4 -10z m2395 -61 c0 -6 -4
-7 -10 -4 -5 3 -10 11 -10 16 0 6 5 7 10 4 6 -3 10 -11 10 -16z m57 -42 c12
-11 33 -25 45 -32 13 -6 22 -17 20 -24 -1 -7 2 -10 7 -6 6 3 7 13 4 23 -6 14
-4 15 9 4 9 -7 18 -25 21 -41 4 -17 14 -30 26 -34 17 -4 21 -13 20 -44 -1 -34
-2 -35 -9 -13 -7 23 -8 23 -9 -9 -1 -31 -2 -33 -18 -20 -10 8 -29 21 -43 28
-24 12 -80 91 -80 113 0 6 -8 20 -17 30 -19 21 -26 60 -9 51 6 -3 21 -15 33
-26z m-1705 -262 c-6 -36 -19 -40 -14 -4 2 16 8 29 12 29 4 0 5 -11 2 -25z
m1898 -10 c14 -19 14 -19 -2 -6 -10 7 -18 18 -18 24 0 6 1 8 3 6 1 -2 9 -13
17 -24z m-1537 -47 c-2 -5 -3 -17 -3 -28 0 -11 -4 -20 -10 -20 -5 0 -10 10
-10 21 0 16 -5 20 -19 16 -12 -3 -18 0 -15 7 5 13 61 16 57 4z m1823 -193 c-2
-5 -7 6 -11 25 -7 30 -9 32 -16 15 -7 -19 -8 -19 -8 -1 -1 11 -11 30 -22 42
-12 13 -19 30 -16 38 9 23 25 19 30 -6 4 -20 4 -19 6 5 0 15 -3 27 -7 27 -5 0
-6 15 -4 33 4 26 9 14 28 -68 13 -55 22 -104 20 -110z m-2386 125 c13 -8 13
-10 -2 -10 -9 0 -20 5 -23 10 -8 13 5 13 25 0z m60 -40 c0 -5 -2 -10 -4 -10
-3 0 -8 5 -11 10 -3 6 -1 10 4 10 6 0 11 -4 11 -10z m-115 -44 c-31 -14 -45
-12 -45 5 0 5 17 9 38 9 l37 -1 -30 -13z m1202 -18 c-3 -8 -6 -5 -6 6 -1 11 2
17 5 13 3 -3 4 -12 1 -19z m-529 -5 c22 -21 25 -56 5 -49 -8 3 -16 6 -19 6 -2
0 -1 7 2 15 4 8 1 22 -6 30 -17 20 -3 19 18 -2z m-718 -3 c0 -5 -7 -10 -15
-10 -8 0 -15 5 -15 10 0 6 7 10 15 10 8 0 15 -4 15 -10z m97 -6 c11 -11 31
-15 70 -13 30 2 58 -2 65 -9 8 -8 5 -10 -13 -6 l-24 6 25 -14 c21 -12 28 -12
44 -2 14 10 23 10 33 2 20 -16 16 -28 -11 -28 -14 0 -27 -4 -31 -9 -3 -5 -21
-7 -40 -4 -19 3 -35 2 -35 -3 0 -5 -4 -15 -9 -23 -8 -13 -12 -13 -27 0 -13 11
-18 11 -21 1 -7 -20 -23 -3 -23 25 0 25 -1 25 -19 9 -26 -23 -34 -5 -15 33 8
17 13 35 9 41 -10 15 5 12 22 -6z m505 -36 c-8 -8 -9 -4 -5 13 4 13 8 18 11
10 2 -7 -1 -18 -6 -23z m165 -24 c-3 -3 -12 -4 -19 -1 -8 3 -5 6 6 6 11 1 17
-2 13 -5z m613 -15 c0 -5 -4 -9 -10 -9 -5 0 -10 7 -10 16 0 8 5 12 10 9 6 -3
10 -10 10 -16z m-1350 -19 c0 -5 9 -10 20 -10 11 0 20 -7 20 -15 0 -8 7 -15
15 -15 9 0 15 -10 15 -26 l0 -25 -39 28 c-22 15 -37 31 -34 36 2 4 -9 10 -26
13 -40 8 -40 24 -1 24 17 0 30 -4 30 -10z m-221 -70 c-7 -18 -18 -30 -27 -29
-11 0 -12 2 -4 6 6 2 12 10 12 17 0 10 19 36 26 36 2 0 -2 -13 -7 -30z m405 4
c-5 -21 -44 -51 -44 -35 0 9 43 62 47 57 1 -1 0 -11 -3 -22z m1280 11 c-4 -9
-19 -15 -35 -15 -38 0 -37 7 4 19 17 5 33 10 34 10 1 1 0 -6 -3 -14z m-1565
-4 c16 -10 6 -31 -15 -31 -22 0 -47 27 -31 33 19 8 31 7 46 -2z m-202 -44
c-11 -4 -22 -5 -25 -2 -3 3 0 5 6 5 7 0 12 7 12 15 0 13 2 14 14 3 12 -11 11
-14 -7 -21z m-80 1 c-3 -8 -6 -5 -6 6 -1 11 2 17 5 13 3 -3 4 -12 1 -19z m213
1 c0 -5 -4 -9 -10 -9 -5 0 -10 7 -10 16 0 8 5 12 10 9 6 -3 10 -10 10 -16z
m67 -5 c-3 -3 -12 -4 -19 -1 -8 3 -5 6 6 6 11 1 17 -2 13 -5z m853 -69 c-14
-16 -25 -21 -16 -6 4 5 0 12 -6 14 -7 3 -2 6 11 6 20 1 21 -1 11 -14z m-62
-22 c-10 -2 -26 -2 -35 0 -10 3 -2 5 17 5 19 0 27 -2 18 -5z m229 -43 c9 0 13
6 9 15 -7 18 -2 18 41 3 18 -7 33 -17 33 -24 0 -7 6 -14 13 -17 7 -2 8 -8 3
-13 -5 -5 -11 -4 -13 4 -3 6 -14 12 -26 12 -18 0 -19 -2 -7 -11 11 -8 9 -9
-10 -3 -14 4 -26 11 -28 15 -2 5 -17 9 -33 9 -33 0 -34 2 -16 31 l12 20 3 -21
c2 -11 10 -20 19 -20z m741 -31 c-2 -6 -8 -10 -13 -10 -5 0 -11 4 -13 10 -2 6
4 11 13 11 9 0 15 -5 13 -11z m-1408 -13 c0 -11 -19 -15 -25 -6 -3 5 1 10 9
10 9 0 16 -2 16 -4z m803 -101 c-3 -9 -8 -14 -10 -11 -3 3 -2 9 2 15 9 16 15
13 8 -4z m590 -67 c-21 -20 -23 -21 -29 -3 -9 22 24 51 40 35 7 -7 3 -17 -11
-32z m90 -48 c-3 -38 -1 -70 4 -70 12 0 16 -57 4 -64 -12 -8 -34 77 -29 113 3
19 0 32 -9 35 -18 7 -17 36 2 36 8 0 15 5 15 10 0 6 4 10 9 10 5 0 7 -31 4
-70z m-1196 -12 c-3 -7 -5 -2 -5 12 0 14 2 19 5 13 2 -7 2 -19 0 -25z m-692
-45 c-26 -52 -57 -52 -53 1 2 23 4 24 19 10 16 -14 18 -14 29 6 18 33 22 17 5
-17z m1766 7 c19 -10 26 -30 12 -30 -5 0 -19 9 -33 20 -26 21 -12 27 21 10z
m89 -30 c0 -16 -4 -30 -10 -30 -5 0 -10 14 -10 30 0 17 5 30 10 30 6 0 10 -13
10 -30z m-65 -22 c19 -13 34 -29 33 -37 -5 -24 -24 -23 -36 1 -6 13 -11 17
-11 11 -2 -24 -19 -13 -30 17 -12 36 -3 38 44 8z m-885 -208 c0 -5 -2 -10 -4
-10 -3 0 -8 5 -11 10 -3 6 -1 10 4 10 6 0 11 -4 11 -10z m26 -206 c-3 -8 -2
-12 4 -9 6 3 14 -5 20 -19 5 -14 16 -26 24 -26 15 0 32 -57 24 -82 -7 -21 -75
-19 -113 4 -38 22 -44 30 -18 26 10 -2 19 5 21 15 3 16 1 17 -17 7 -30 -16
-28 7 3 31 13 10 27 30 30 44 4 14 11 25 17 25 6 0 8 -7 5 -16z m-1379 -439
c0 -18 2 -18 -33 0 l-29 15 31 0 c21 0 31 -5 31 -15z m-42 -35 c3 -5 1 -10 -4
-10 -6 0 -11 5 -11 10 0 6 2 10 4 10 3 0 8 -4 11 -10z m70 -10 c-3 -5 1 -10 9
-10 9 0 16 -4 16 -10 0 -5 5 -9 11 -7 6 1 14 -4 16 -11 3 -7 -1 -10 -10 -6
-12 4 -14 0 -10 -18 6 -21 5 -22 -11 -9 -9 8 -15 20 -12 27 3 7 -2 15 -10 18
-16 6 -19 36 -3 36 5 0 7 -4 4 -10z m-25 -46 c0 -3 -7 -1 -15 6 -8 7 -15 17
-15 22 0 5 7 3 15 -6 8 -8 15 -18 15 -22z"/>
<path d="M3311 2594 c0 -11 3 -14 6 -6 3 7 2 16 -1 19 -3 4 -6 -2 -5 -13z"/>
<path d="M1960 3770 c0 -9 -9 -15 -24 -15 -13 0 -22 4 -18 9 3 5 -9 6 -29 2
-84 -17 -121 -19 -129 -6 -6 10 -14 9 -40 -4 -18 -9 -55 -16 -81 -16 -26 0
-49 -4 -51 -9 -1 -5 -29 -12 -61 -15 -67 -8 -87 -14 -87 -27 0 -5 -17 -7 -37
-4 -35 5 -66 -1 -233 -46 -56 -15 -105 -36 -150 -64 -19 -12 -49 -25 -66 -28
-33 -6 -124 -63 -124 -76 0 -5 7 -14 15 -21 14 -12 70 2 160 40 45 20 156 59
250 89 55 18 116 39 136 47 31 14 45 14 129 -1 52 -9 101 -20 109 -25 9 -5 31
2 61 21 70 43 109 57 180 64 36 4 68 9 72 11 4 2 45 5 91 6 74 1 88 -2 116
-23 l33 -24 -30 -3 c-20 -2 -32 -10 -35 -24 -3 -11 -9 -18 -14 -15 -13 8 -55
-12 -48 -23 10 -16 45 -11 72 10 14 11 31 20 38 20 7 0 15 7 19 15 4 12 24 14
118 10 62 -3 147 -10 188 -15 41 -5 98 -10 127 -12 28 -1 68 -10 89 -20 21
-10 54 -18 73 -18 20 -1 53 -7 74 -14 20 -8 40 -10 43 -5 3 5 15 9 27 9 16 0
19 3 8 9 -8 5 -10 14 -6 22 6 9 4 11 -8 6 -9 -3 -19 -1 -23 4 -3 6 -16 8 -28
5 -11 -3 -46 4 -76 15 -61 23 -100 25 -111 7 -5 -8 -10 -2 -14 15 -4 15 -11
25 -15 22 -5 -3 -14 1 -22 8 -7 7 -34 13 -61 13 -26 1 -57 5 -70 11 -19 10
-239 35 -292 34 -10 0 -25 5 -32 11 -9 8 -13 7 -13 -2 0 -8 -6 -9 -17 -5 -37
15 -83 23 -89 14 -9 -15 -24 -10 -24 9 -1 16 -1 16 -14 0 -7 -10 -18 -18 -24
-18 -6 0 -16 8 -21 18 -8 13 -10 14 -11 2z"/>
<path d="M1928 3663 c12 -2 32 -2 45 0 12 2 2 4 -23 4 -25 0 -35 -2 -22 -4z"/>
<path d="M1680 3601 c0 -5 9 -7 20 -4 11 3 20 7 20 9 0 2 -9 4 -20 4 -11 0
-20 -4 -20 -9z"/>
<path d="M1925 3583 c-112 -6 -132 -12 -138 -41 -19 -90 -17 -96 8 -24 9 27
40 36 127 37 46 0 68 4 68 12 0 16 -8 18 -65 16z"/>
<path d="M2063 3503 c-18 -3 -23 -12 -24 -36 -1 -18 0 -36 1 -42 1 -5 -2 -7
-6 -2 -4 4 -17 -1 -28 -12 -12 -10 -32 -22 -46 -26 -44 -13 -140 -21 -140 -12
0 5 -6 4 -14 -2 -10 -8 -16 -9 -21 -1 -3 6 -11 8 -16 5 -5 -4 -9 -1 -9 5 0 7
-7 9 -16 6 -13 -5 -15 -1 -10 19 5 18 2 25 -9 25 -8 0 -15 -4 -15 -8 0 -12
-134 -72 -163 -72 -34 0 -45 -19 -22 -37 27 -19 85 -16 128 7 46 25 61 25 102
0 46 -29 148 -31 206 -5 48 22 76 48 107 97 11 18 30 39 42 46 17 10 18 16 10
32 -11 20 -15 21 -57 13z"/>
<path d="M1970 3491 c0 -6 4 -13 10 -16 6 -3 7 1 4 9 -7 18 -14 21 -14 7z"/>
<path d="M1740 3462 c0 -12 19 -26 26 -19 2 2 -2 10 -11 17 -9 8 -15 8 -15 2z"/>
<path d="M2092 3378 c4 -12 -53 -68 -70 -68 -5 0 -15 -7 -22 -15 -16 -19 -9
-19 35 -1 19 8 35 20 35 27 0 7 3 9 7 6 8 -9 32 24 33 46 0 9 -5 17 -11 17 -6
0 -9 -5 -7 -12z"/>
<path d="M3352 3310 c0 -14 2 -19 5 -12 2 6 2 18 0 25 -3 6 -5 1 -5 -13z"/>
<path d="M1658 3288 c-21 -11 -51 -20 -68 -20 -23 -1 -28 -4 -19 -14 8 -10 33
-12 92 -9 96 5 105 7 132 23 18 10 17 11 -11 12 -17 0 -37 7 -44 15 -16 19
-35 17 -82 -7z"/>
<path d="M1343 3219 c-7 -7 -13 -19 -13 -26 0 -6 -16 -15 -35 -19 -19 -3 -44
-15 -57 -25 -12 -11 -27 -18 -33 -15 -7 2 -18 0 -26 -6 -11 -8 -10 -9 4 -4 24
8 21 1 -9 -19 -18 -11 -29 -13 -38 -6 -17 15 -59 1 -95 -32 -17 -15 -31 -23
-31 -17 0 18 -18 11 -25 -10 -4 -13 -15 -20 -30 -20 -14 0 -34 -13 -49 -31
-14 -17 -26 -27 -26 -24 0 4 -18 -12 -40 -36 -21 -24 -38 -45 -36 -47 5 -4
118 28 131 38 6 4 28 13 50 20 22 7 43 18 47 24 4 6 13 11 20 12 7 0 31 8 53
18 22 9 49 21 60 25 29 12 105 46 144 65 19 9 40 16 47 16 7 0 15 6 17 13 4 8
6 8 6 -2 1 -11 5 -10 16 5 8 10 15 14 15 9 0 -12 60 -14 60 -3 0 5 9 8 19 8
13 0 19 6 18 19 -1 12 -7 17 -19 13 -10 -2 -15 -9 -12 -16 3 -6 0 -4 -8 5 -7
9 -19 14 -25 12 -8 -3 -13 4 -13 18 0 22 0 22 -15 3 -13 -17 -14 -17 -15 -1 0
10 -8 17 -19 17 -11 0 -21 7 -23 16 -2 12 -5 13 -15 3z"/>
<path d="M1525 3159 c-4 -6 -5 -12 -2 -15 2 -3 7 2 10 11 7 17 1 20 -8 4z"/>
<path d="M3467 2513 c-4 -3 -7 -11 -7 -17 0 -6 5 -5 12 2 6 6 9 14 7 17 -3 3
-9 2 -12 -2z"/>
<path d="M3492 2443 c-23 -28 -29 -53 -13 -53 9 0 51 61 51 74 0 14 -18 4 -38
-21z"/>
<path d="M2995 2104 c-18 -28 -15 -57 9 -89 14 -18 15 -15 14 48 -1 37 -3 67
-4 67 -1 0 -9 -12 -19 -26z"/>
<path d="M3134 2046 c-18 -19 -26 -54 -14 -61 5 -3 10 2 10 12 0 11 5 24 11
30 6 6 10 16 8 21 -3 6 -9 5 -15 -2z"/>
<path d="M3585 2037 c-4 -9 -2 -24 5 -31 6 -8 15 -27 20 -43 8 -22 8 -18 4 17
-4 25 -10 52 -14 60 -7 13 -10 12 -15 -3z"/>
<path d="M2936 1993 c10 -40 14 -41 14 -5 0 18 -5 32 -10 32 -6 0 -8 -11 -4
-27z"/>
<path d="M3010 1983 c0 -4 8 -17 16 -28 15 -20 16 -20 12 4 -3 22 -28 44 -28
24z"/>
<path d="M3170 1960 c0 -20 5 -30 15 -30 17 0 18 4 9 38 -9 32 -24 27 -24 -8z"/>
<path d="M721 1949 c-1 -17 5 -29 15 -33 13 -5 14 -3 6 6 -5 7 -12 22 -15 33
-4 16 -5 14 -6 -6z"/>
<path d="M2940 1920 c0 -11 24 -30 37 -30 7 0 13 8 13 18 0 14 2 15 10 2 7
-12 12 -12 22 -2 13 13 13 13 -49 16 -18 0 -33 -1 -33 -4z"/>
<path d="M3626 1917 c3 -10 9 -15 12 -12 3 3 0 11 -7 18 -10 9 -11 8 -5 -6z"/>
<path d="M700 1880 c0 -5 5 -10 10 -10 6 0 10 5 10 10 0 6 -4 10 -10 10 -5 0
-10 -4 -10 -10z"/>
<path d="M850 1835 c0 -8 4 -15 10 -15 5 0 7 7 4 15 -4 8 -8 15 -10 15 -2 0
-4 -7 -4 -15z"/>
<path d="M3152 1843 c-6 -2 -10 -9 -7 -13 7 -11 35 -2 35 11 0 10 -8 10 -28 2z"/>
<path d="M2991 1828 c0 -7 4 -22 9 -33 7 -17 9 -15 9 13 1 17 -3 32 -9 32 -5
0 -10 -6 -9 -12z"/>
<path d="M3190 1765 c0 -15 4 -24 10 -20 6 3 10 12 10 20 0 8 -4 17 -10 20 -6
4 -10 -5 -10 -20z"/>
<path d="M1475 1720 c-3 -5 -1 -10 4 -10 6 0 11 5 11 10 0 6 -2 10 -4 10 -3 0
-8 -4 -11 -10z"/>
<path d="M3200 1699 c0 -11 5 -17 10 -14 6 3 10 13 10 21 0 8 -4 14 -10 14 -5
0 -10 -9 -10 -21z"/>
<path d="M3125 1650 c-3 -5 1 -10 9 -10 9 0 16 5 16 10 0 6 -4 10 -9 10 -6 0
-13 -4 -16 -10z"/>
<path d="M900 1640 c0 -5 9 -14 20 -20 16 -8 20 -8 20 4 0 7 -7 17 -16 20 -21
8 -24 8 -24 -4z"/>
<path d="M3185 1620 c3 -5 11 -10 16 -10 6 0 7 5 4 10 -3 6 -11 10 -16 10 -6
0 -7 -4 -4 -10z"/>
<path d="M865 1603 c3 -8 5 -18 5 -21 0 -8 20 20 20 29 0 3 -7 6 -15 6 -10 0
-14 -6 -10 -14z"/>
<path d="M3155 1519 c-11 -16 0 -21 30 -13 20 5 23 9 13 15 -18 12 -36 11 -43
-2z"/>
<path d="M3252 1498 c-21 -21 -13 -27 18 -15 17 6 30 15 30 19 0 12 -35 9 -48
-4z"/>
<path d="M3173 1477 c-18 -10 -20 -15 -9 -29 17 -24 32 -23 50 4 12 17 13 24
3 30 -15 10 -18 10 -44 -5z"/>
<path d="M2972 1385 c0 -16 2 -22 5 -12 2 9 2 23 0 30 -3 6 -5 -1 -5 -18z"/>
<path d="M980 1394 c0 -6 9 -21 20 -34 11 -13 20 -18 20 -13 0 15 -39 61 -40
47z"/>
<path d="M3323 1347 c-49 -18 -50 -27 -5 -27 31 0 44 5 52 20 13 23 2 25 -47
7z"/>
<path d="M3040 1296 c0 -9 8 -12 25 -8 28 5 24 22 -6 22 -10 0 -19 -6 -19 -14z"/>
<path d="M3400 1300 c0 -13 11 -13 30 0 12 8 11 10 -7 10 -13 0 -23 -4 -23
-10z"/>
<path d="M3565 1259 c-10 -30 2 -36 25 -11 25 26 25 32 1 32 -11 0 -23 -9 -26
-21z"/>
<path d="M3300 1252 c0 -7 4 -12 9 -12 5 0 11 -10 13 -22 3 -19 4 -20 10 -6 4
10 -1 23 -13 34 -11 10 -19 12 -19 6z"/>
<path d="M3209 1224 c-11 -14 -10 -16 9 -12 13 1 23 7 23 13 1 17 -17 16 -32
-1z"/>
<path d="M3042 1218 c3 -7 15 -14 29 -16 24 -4 24 -3 4 12 -24 19 -38 20 -33
4z"/>
<path d="M2980 1190 c0 -5 5 -10 10 -10 6 0 10 5 10 10 0 6 -4 10 -10 10 -5 0
-10 -4 -10 -10z"/>
<path d="M3020 1178 c0 -41 -11 -65 -36 -79 -14 -7 -27 -23 -30 -36 -5 -17
-10 -21 -19 -13 -6 5 -15 7 -18 3 -4 -3 -7 1 -7 10 0 10 5 17 10 17 6 0 10 9
10 20 0 25 -27 27 -33 3 -3 -10 -5 -33 -5 -51 -1 -30 -21 -64 -67 -113 -8 -9
-15 -21 -15 -27 0 -19 18 -14 30 8 14 25 28 26 32 1 3 -18 6 -17 38 10 l35 30
-32 -4 c-31 -3 -32 -3 -16 15 9 10 22 18 29 18 7 0 19 12 26 28 7 15 28 33 46
41 17 8 32 21 32 28 0 7 6 13 14 13 7 0 19 7 26 15 10 12 7 15 -15 21 -19 5
-23 10 -16 17 16 16 13 47 -4 47 -9 0 -15 -9 -15 -22z"/>
<path d="M3295 1180 c-3 -5 -2 -10 4 -10 5 0 13 5 16 10 3 6 2 10 -4 10 -5 0
-13 -4 -16 -10z"/>
<path d="M3212 1137 c-5 -6 -13 -23 -16 -37 -4 -14 -4 -20 1 -14 4 6 16 13 26
17 18 7 23 32 8 41 -5 3 -13 0 -19 -7z"/>
<path d="M3513 1133 c-7 -2 -13 -9 -13 -14 0 -15 53 -6 58 9 4 12 -21 15 -45
5z"/>
<path d="M3420 1120 c0 -5 4 -10 9 -10 6 0 13 5 16 10 3 6 -1 10 -9 10 -9 0
-16 -4 -16 -10z"/>
<path d="M3255 1100 c-9 -10 -14 -23 -11 -28 7 -12 93 -14 101 -2 3 5 19 10
36 10 16 0 29 5 29 10 0 6 -23 10 -51 10 -28 0 -58 4 -68 10 -14 7 -23 5 -36
-10z"/>
<path d="M3355 1050 c3 -5 8 -10 11 -10 2 0 4 5 4 10 0 6 -5 10 -11 10 -5 0
-7 -4 -4 -10z"/>
<path d="M3032 1038 c-7 -7 -12 -17 -12 -23 0 -17 -24 -65 -32 -65 -5 0 -8 -6
-8 -14 0 -17 28 -41 37 -32 4 4 1 11 -6 15 -8 6 -9 11 -3 15 6 3 13 2 17 -4 7
-11 45 5 57 23 4 6 23 11 42 11 21 0 31 3 23 8 -8 5 -6 8 8 8 14 0 20 7 21 25
1 15 -3 25 -12 25 -8 0 -14 -4 -14 -10 0 -5 -16 -10 -35 -10 -21 0 -35 -5 -35
-12 0 -23 -15 -36 -45 -43 l-30 -6 28 16 c28 16 39 52 12 41 -21 -8 -19 0 7
24 16 15 18 20 7 20 -8 0 -20 -5 -27 -12z"/>
<path d="M3248 1044 c6 -3 12 -12 12 -20 0 -9 10 -14 27 -14 24 0 25 2 13 14
-8 8 -26 17 -40 20 -14 3 -19 3 -12 0z"/>
<path d="M3195 992 c6 -4 10 -16 10 -27 0 -16 8 -21 39 -23 25 -2 36 0 31 7
-3 6 -15 11 -27 11 -16 0 -18 3 -9 13 14 18 4 27 -28 27 -14 0 -21 -4 -16 -8z"/>
<path d="M3180 905 c-6 -8 -9 -19 -5 -25 3 -6 -3 -10 -14 -10 -12 0 -21 -4
-21 -10 0 -5 6 -10 14 -10 25 0 46 12 46 25 0 8 8 11 19 8 23 -6 39 16 20 28
-21 13 -45 11 -59 -6z"/>
<path d="M3492 908 c-14 -14 -16 -28 -3 -28 9 0 24 30 18 36 -2 2 -9 -2 -15
-8z"/>
<path d="M2950 899 c0 -5 5 -7 10 -4 6 3 10 8 10 11 0 2 -4 4 -10 4 -5 0 -10
-5 -10 -11z"/>
<path d="M3130 901 c0 -6 5 -13 10 -16 6 -3 10 1 10 9 0 9 -4 16 -10 16 -5 0
-10 -4 -10 -9z"/>
<path d="M2778 866 c-10 -7 -18 -18 -18 -23 0 -22 -44 -46 -137 -74 -52 -16
-39 -27 35 -31 71 -4 112 5 80 17 -35 14 -17 26 33 23 35 -2 53 1 56 10 3 8
-8 12 -37 12 l-42 0 32 40 c32 40 31 51 -2 26z"/>
<path d="M2835 860 c-18 -20 -15 -38 4 -25 15 9 33 45 23 45 -5 0 -17 -9 -27
-20z"/>
<path d="M3430 855 c-7 -14 -11 -28 -7 -31 9 -9 37 22 37 40 0 24 -15 19 -30
-9z"/>
<path d="M3095 820 c-10 -11 -26 -22 -36 -25 -23 -8 -25 -25 -4 -25 8 0 15 4
15 9 0 9 37 24 55 22 6 0 11 8 12 19 2 26 -19 26 -42 0z"/>
<path d="M2913 823 c-12 -2 -26 -10 -32 -17 -9 -11 -1 -11 41 -5 58 9 90 30
43 28 -17 -1 -40 -4 -52 -6z"/>
<path d="M3162 794 c3 -17 21 -21 26 -6 1 5 -4 12 -13 16 -11 4 -15 1 -13 -10z"/>
<path d="M3432 801 c-11 -7 -11 -9 0 -14 9 -3 15 1 15 9 0 8 -1 14 -1 14 -1 0
-7 -4 -14 -9z"/>
<path d="M3070 735 c-10 -12 -7 -15 14 -21 14 -3 38 -3 53 1 l28 7 -25 13
c-33 18 -55 18 -70 0z"/>
<path d="M2990 720 c0 -5 13 -8 30 -7 39 3 39 17 0 17 -16 0 -30 -4 -30 -10z"/>
<path d="M1048 673 c7 -3 16 -2 19 1 4 3 -2 6 -13 5 -11 0 -14 -3 -6 -6z"/>
<path d="M2558 653 c7 -3 16 -2 19 1 4 3 -2 6 -13 5 -11 0 -14 -3 -6 -6z"/>
<path d="M2460 643 c8 -4 21 -12 28 -20 17 -17 38 -17 45 1 7 17 -14 26 -56
25 -18 0 -25 -3 -17 -6z"/>
<path d="M2153 633 c-33 -13 -8 -24 50 -22 34 2 71 -2 83 -9 22 -12 64 -6 64
9 0 14 -28 11 -33 -3 -4 -9 -8 -10 -14 -3 -22 28 -111 44 -150 28z"/>
<path d="M3360 608 c0 -6 -7 -20 -17 -30 -13 -15 -6 -25 12 -15 2 1 10 -7 18
-17 15 -21 37 -14 37 11 0 9 -11 26 -25 39 -14 13 -25 18 -25 12z"/>
<path d="M2080 580 c0 -24 41 -28 59 -7 14 18 4 27 -31 27 -21 0 -28 -5 -28
-20z"/>
<path d="M2220 569 l-25 -20 25 6 c30 9 45 21 33 28 -5 3 -20 -3 -33 -14z"/>
<path d="M3296 572 c-3 -6 -16 -8 -28 -5 -14 4 -26 0 -34 -12 -11 -14 -23 -17
-59 -12 -34 3 -48 1 -52 -9 -3 -8 -11 -11 -21 -6 -10 4 -45 7 -80 7 -47 0 -67
-4 -75 -16 -17 -22 -187 -58 -187 -39 0 16 -107 23 -139 9 -17 -8 -31 -17 -31
-20 0 -7 88 -19 142 -19 20 0 40 -4 43 -10 3 -5 30 -10 58 -9 29 0 45 3 37 6
-42 14 -44 16 -15 22 17 4 33 3 36 -2 3 -5 46 -10 94 -12 54 -2 91 -8 96 -16
4 -6 14 -9 22 -6 8 3 27 -1 42 -9 32 -16 55 -18 55 -4 0 6 7 10 15 10 17 0 71
35 103 68 25 25 28 37 8 29 -20 -8 -27 3 -16 22 10 19 -3 50 -14 33z"/>
<path d="M3430 565 c-10 -12 -10 -15 3 -15 9 0 42 -12 73 -26 51 -23 81 -26
58 -5 -13 13 -103 61 -113 61 -5 0 -14 -7 -21 -15z"/>
<path d="M2320 555 c0 -8 2 -15 4 -15 2 0 12 -3 20 -6 12 -4 15 -2 10 9 -8 21
-34 30 -34 12z"/>
<path d="M2030 530 c0 -5 7 -10 16 -10 8 0 12 5 9 10 -3 6 -10 10 -16 10 -5 0
-9 -4 -9 -10z"/>
<path d="M2195 530 c-4 -6 6 -10 22 -10 22 0 25 2 13 10 -19 12 -27 12 -35 0z"/>
<path d="M580 516 c0 -2 9 -6 20 -9 11 -3 20 -1 20 4 0 5 -9 9 -20 9 -11 0
-20 -2 -20 -4z"/>
<path d="M1240 500 c0 -5 9 -10 20 -10 11 0 20 5 20 10 0 6 -9 10 -20 10 -11
0 -20 -4 -20 -10z"/>
<path d="M1892 438 c-15 -8 -20 -17 -17 -29 9 -27 -14 -33 -24 -7 -10 23 -10
22 -10 -4 -1 -16 -7 -28 -14 -28 -23 0 -67 -25 -67 -38 0 -12 -52 -72 -63 -72
-3 0 -17 -11 -30 -24 -29 -28 -14 -42 28 -26 30 11 93 14 123 5 14 -5 22 -3
22 5 0 7 7 10 15 6 9 -3 25 0 36 7 15 9 21 9 27 0 10 -16 72 11 72 32 0 8 7
15 16 15 10 0 14 6 11 14 -3 7 0 19 6 25 8 8 7 11 -6 11 -26 0 -20 17 8 22 13
3 22 2 19 -3 -2 -4 3 -12 13 -17 13 -8 21 -6 31 6 11 15 12 13 7 -15 -7 -33
11 -56 22 -28 9 25 48 65 64 65 10 0 10 -3 1 -12 -18 -18 -15 -31 6 -23 28 12
73 6 101 -14 26 -19 26 -19 44 5 18 24 18 25 -5 44 -22 19 -21 19 37 -1 33
-12 66 -26 73 -32 8 -7 12 -5 12 6 0 22 -55 77 -77 77 -10 0 -27 7 -37 15 -10
8 -23 12 -27 9 -5 -3 -14 -2 -21 2 -7 4 -59 9 -117 11 -89 2 -106 0 -118 -15
-12 -16 -14 -16 -27 1 -15 20 -96 23 -134 5z m358 -18 c0 -5 -7 -10 -15 -10
-8 0 -15 5 -15 10 0 6 7 10 15 10 8 0 15 -4 15 -10z m-75 -20 c3 -5 1 -10 -4
-10 -6 0 -11 5 -11 10 0 6 2 10 4 10 3 0 8 -4 11 -10z m70 -10 c-3 -5 -12 -10
-18 -10 -7 0 -6 4 3 10 19 12 23 12 15 0z m25 -20 c0 -5 -7 -10 -16 -10 -8 0
-12 5 -9 10 3 6 10 10 16 10 5 0 9 -4 9 -10z m60 -40 c0 -5 -4 -10 -10 -10 -5
0 -10 5 -10 10 0 6 5 10 10 10 6 0 10 -4 10 -10z m-387 -70 c3 -13 0 -20 -8
-20 -17 0 -28 17 -20 30 10 16 22 12 28 -10z"/>
<path d="M840 404 c0 -8 5 -12 10 -9 6 4 8 11 5 16 -9 14 -15 11 -15 -7z"/>
<path d="M1425 406 c-17 -12 -14 -36 4 -36 8 0 23 41 17 47 -1 2 -11 -3 -21
-11z"/>
<path d="M1700 405 c0 -9 6 -12 15 -9 8 4 15 1 15 -7 0 -7 2 -10 5 -7 3 3 3
13 -1 22 -8 20 -34 21 -34 1z"/>
<path d="M2865 410 c3 -5 13 -10 21 -10 8 0 12 5 9 10 -3 6 -13 10 -21 10 -8
0 -12 -4 -9 -10z"/>
<path d="M1483 403 c-21 -4 -41 -33 -23 -33 6 0 27 9 47 20 37 19 29 23 -24
13z"/>
<path d="M922 388 c-15 -15 -16 -28 -2 -28 6 0 10 6 10 14 0 8 6 17 13 19 6 3
7 6 2 6 -6 1 -16 -4 -23 -11z"/>
<path d="M2470 349 c0 -5 10 -14 23 -20 32 -17 32 -18 11 -34 -17 -13 -17 -14
-1 -15 9 0 17 -4 17 -9 0 -5 21 -17 48 -27 26 -10 53 -22 61 -28 37 -29 251
-70 251 -48 0 5 30 13 68 18 77 9 79 9 110 0 22 -7 23 -6 13 13 -7 12 -17 21
-24 21 -7 0 -32 14 -55 31 -53 39 -106 53 -123 33 -9 -11 -8 -19 6 -34 18 -20
17 -20 -11 -20 -42 0 -123 42 -171 89 -45 43 -57 42 -22 -3 l20 -26 -21 0
c-19 0 -21 -2 -10 -15 7 -9 19 -14 26 -11 8 3 11 0 7 -10 -4 -10 0 -13 13 -8
15 5 16 4 5 -4 -11 -8 -6 -12 22 -17 20 -4 37 -10 37 -14 0 -18 -14 -18 -46 0
-19 10 -41 19 -49 19 -8 0 -15 4 -15 9 0 5 -10 7 -22 3 -14 -3 -19 -2 -14 6 4
8 -3 16 -18 22 -14 5 -26 14 -26 18 0 19 -52 60 -80 64 -17 3 -30 1 -30 -3z
m350 -149 c0 -6 10 -15 23 -20 l22 -9 -22 0 c-13 -1 -23 4 -23 9 0 6 -7 10
-15 10 -8 0 -15 5 -15 10 0 6 7 10 15 10 8 0 15 -5 15 -10z"/>
<path d="M760 340 c0 -5 5 -10 10 -10 6 0 10 5 10 10 0 6 -4 10 -10 10 -5 0
-10 -4 -10 -10z"/>
<path d="M2350 313 c1 -5 11 -20 23 -35 17 -20 33 -27 75 -31 65 -6 68 15 4
24 -23 3 -52 15 -65 27 -24 23 -37 28 -37 15z"/>
<path d="M2105 260 c3 -5 8 -10 11 -10 2 0 4 5 4 10 0 6 -5 10 -11 10 -5 0 -7
-4 -4 -10z"/>
<path d="M2290 253 c-24 -12 -24 -13 -3 -13 12 0 25 5 28 11 11 16 2 17 -25 2z"/>
<path d="M1545 240 c-3 -5 -2 -10 4 -10 5 0 13 5 16 10 3 6 2 10 -4 10 -5 0
-13 -4 -16 -10z"/>
<path d="M1605 240 c-3 -5 -2 -10 4 -10 5 0 13 5 16 10 3 6 2 10 -4 10 -5 0
-13 -4 -16 -10z"/>
<path d="M1571 199 c-23 -19 -13 -24 21 -11 10 4 14 12 10 19 -5 8 -14 6 -31
-8z"/>
<path d="M3150 178 c3 -37 1 -50 -9 -43 -5 3 -12 1 -16 -5 -4 -6 -24 -8 -48
-4 -31 4 -38 3 -27 -5 8 -6 20 -11 27 -11 7 0 27 -15 45 -33 35 -34 86 -62 97
-52 3 3 -1 11 -9 16 -11 8 1 9 39 6 40 -3 59 -10 72 -26 14 -17 28 -21 79 -21
53 0 61 2 56 16 -3 9 -6 21 -7 27 0 7 -4 3 -9 -8 -5 -11 -9 -14 -9 -7 -1 7 -6
18 -11 25 -6 7 -17 21 -24 31 -9 13 -26 20 -49 20 -31 1 -38 5 -47 30 l-10 29
-23 -26 c-25 -30 -37 -34 -37 -14 0 15 -58 77 -72 77 -5 0 -9 -10 -8 -22z"/>
<path d="M2635 140 c-4 -6 -3 -10 2 -9 4 1 35 -10 67 -26 32 -15 80 -29 105
-32 53 -4 48 -1 -75 46 -91 35 -90 35 -99 21z"/>
<path d="M1029 64 c-8 -10 -15 -11 -24 -4 -15 12 -19 7 -29 -32 l-6 -28 72 0
c60 1 70 3 57 13 -9 7 -19 22 -23 34 -9 27 -31 36 -47 17z"/>
<path d="M2920 76 c0 -5 65 -46 74 -46 3 0 6 5 6 10 0 6 -7 10 -16 10 -8 0
-22 7 -30 15 -14 14 -34 20 -34 11z"/>
<path d="M2197 53 c-4 -3 -7 -13 -7 -21 0 -12 3 -12 15 -2 8 7 15 16 15 21 0
11 -14 12 -23 2z"/>
<path d="M2676 37 c3 -10 9 -15 12 -12 3 3 0 11 -7 18 -10 9 -11 8 -5 -6z"/>
<path d="M750 30 c0 -5 7 -10 16 -10 8 0 12 5 9 10 -3 6 -10 10 -16 10 -5 0
-9 -4 -9 -10z"/>
</g>
</svg>
